<mxfile host="app.diagrams.net" agent="Mozilla/5.0 (Macintosh; Intel Mac OS X 10.15; rv:128.0) Gecko/20100101 Firefox/128.0" version="28.0.6">
  <diagram name="第 1 页" id="LOgVWRtCxbD7Uq0kC9Xl">
    <mxGraphModel dx="1653" dy="857" grid="1" gridSize="10" guides="1" tooltips="1" connect="1" arrows="1" fold="1" page="1" pageScale="1" pageWidth="1169" pageHeight="827" math="0" shadow="0">
      <root>
        <mxCell id="0" />
        <mxCell id="1" parent="0" />
        <mxCell id="N3dtoauHQk78ToCYjNHM-1" style="edgeStyle=none;rounded=0;orthogonalLoop=1;jettySize=auto;html=1;entryX=0.5;entryY=0;entryDx=0;entryDy=0;" edge="1" parent="1" source="N3dtoauHQk78ToCYjNHM-2" target="N3dtoauHQk78ToCYjNHM-8">
          <mxGeometry relative="1" as="geometry" />
        </mxCell>
        <mxCell id="N3dtoauHQk78ToCYjNHM-54" value="fc0_out" style="edgeLabel;html=1;align=center;verticalAlign=middle;resizable=0;points=[];" vertex="1" connectable="0" parent="N3dtoauHQk78ToCYjNHM-1">
          <mxGeometry x="-0.1333" relative="1" as="geometry">
            <mxPoint as="offset" />
          </mxGeometry>
        </mxCell>
        <mxCell id="N3dtoauHQk78ToCYjNHM-2" value="fc0" style="rounded=1;whiteSpace=wrap;html=1;" vertex="1" parent="1">
          <mxGeometry x="100" y="160" width="50" height="30" as="geometry" />
        </mxCell>
        <mxCell id="N3dtoauHQk78ToCYjNHM-3" style="edgeStyle=orthogonalEdgeStyle;rounded=0;orthogonalLoop=1;jettySize=auto;html=1;entryX=0.5;entryY=0;entryDx=0;entryDy=0;" edge="1" parent="1" source="N3dtoauHQk78ToCYjNHM-5" target="N3dtoauHQk78ToCYjNHM-2">
          <mxGeometry relative="1" as="geometry" />
        </mxCell>
        <mxCell id="N3dtoauHQk78ToCYjNHM-4" value="input" style="edgeLabel;html=1;align=center;verticalAlign=middle;resizable=0;points=[];" vertex="1" connectable="0" parent="N3dtoauHQk78ToCYjNHM-3">
          <mxGeometry x="-0.048" relative="1" as="geometry">
            <mxPoint as="offset" />
          </mxGeometry>
        </mxCell>
        <mxCell id="N3dtoauHQk78ToCYjNHM-5" value="……" style="rounded=1;whiteSpace=wrap;html=1;" vertex="1" parent="1">
          <mxGeometry x="100" y="80" width="50" height="30" as="geometry" />
        </mxCell>
        <mxCell id="N3dtoauHQk78ToCYjNHM-6" style="edgeStyle=none;rounded=0;orthogonalLoop=1;jettySize=auto;html=1;entryX=1;entryY=0.5;entryDx=0;entryDy=0;exitX=0;exitY=0.75;exitDx=0;exitDy=0;" edge="1" parent="1" source="N3dtoauHQk78ToCYjNHM-19" target="N3dtoauHQk78ToCYjNHM-2">
          <mxGeometry relative="1" as="geometry">
            <mxPoint x="221.25" y="130" as="sourcePoint" />
          </mxGeometry>
        </mxCell>
        <mxCell id="N3dtoauHQk78ToCYjNHM-7" style="edgeStyle=none;rounded=0;orthogonalLoop=1;jettySize=auto;html=1;entryX=0.5;entryY=0;entryDx=0;entryDy=0;" edge="1" parent="1" source="N3dtoauHQk78ToCYjNHM-8" target="N3dtoauHQk78ToCYjNHM-11">
          <mxGeometry relative="1" as="geometry" />
        </mxCell>
        <mxCell id="N3dtoauHQk78ToCYjNHM-8" value="act" style="rounded=1;whiteSpace=wrap;html=1;" vertex="1" parent="1">
          <mxGeometry x="100" y="220" width="50" height="30" as="geometry" />
        </mxCell>
        <mxCell id="N3dtoauHQk78ToCYjNHM-9" style="edgeStyle=none;rounded=0;orthogonalLoop=1;jettySize=auto;html=1;entryX=0.5;entryY=0;entryDx=0;entryDy=0;" edge="1" parent="1" source="N3dtoauHQk78ToCYjNHM-11" target="N3dtoauHQk78ToCYjNHM-13">
          <mxGeometry relative="1" as="geometry" />
        </mxCell>
        <mxCell id="N3dtoauHQk78ToCYjNHM-10" value="fc1_out" style="edgeLabel;html=1;align=center;verticalAlign=middle;resizable=0;points=[];" vertex="1" connectable="0" parent="N3dtoauHQk78ToCYjNHM-9">
          <mxGeometry x="-0.09" y="1" relative="1" as="geometry">
            <mxPoint as="offset" />
          </mxGeometry>
        </mxCell>
        <mxCell id="N3dtoauHQk78ToCYjNHM-11" value="fc1" style="rounded=1;whiteSpace=wrap;html=1;" vertex="1" parent="1">
          <mxGeometry x="100" y="320" width="50" height="30" as="geometry" />
        </mxCell>
        <mxCell id="N3dtoauHQk78ToCYjNHM-12" style="edgeStyle=none;rounded=0;orthogonalLoop=1;jettySize=auto;html=1;entryX=1;entryY=0.5;entryDx=0;entryDy=0;exitX=0;exitY=0;exitDx=0;exitDy=0;" edge="1" parent="1" source="N3dtoauHQk78ToCYjNHM-24" target="N3dtoauHQk78ToCYjNHM-11">
          <mxGeometry relative="1" as="geometry">
            <mxPoint x="220" y="265.52631578947376" as="sourcePoint" />
          </mxGeometry>
        </mxCell>
        <mxCell id="N3dtoauHQk78ToCYjNHM-52" style="edgeStyle=orthogonalEdgeStyle;rounded=0;orthogonalLoop=1;jettySize=auto;html=1;entryX=0.5;entryY=0;entryDx=0;entryDy=0;" edge="1" parent="1" source="N3dtoauHQk78ToCYjNHM-13" target="N3dtoauHQk78ToCYjNHM-51">
          <mxGeometry relative="1" as="geometry" />
        </mxCell>
        <mxCell id="N3dtoauHQk78ToCYjNHM-53" value="nccl_allreduce_out" style="edgeLabel;html=1;align=center;verticalAlign=middle;resizable=0;points=[];" vertex="1" connectable="0" parent="N3dtoauHQk78ToCYjNHM-52">
          <mxGeometry x="-0.11" relative="1" as="geometry">
            <mxPoint as="offset" />
          </mxGeometry>
        </mxCell>
        <mxCell id="N3dtoauHQk78ToCYjNHM-13" value="&lt;div&gt;nccl&lt;/div&gt;&lt;div&gt;allreduce&lt;br&gt;&lt;/div&gt;" style="rounded=1;whiteSpace=wrap;html=1;" vertex="1" parent="1">
          <mxGeometry x="100" y="410" width="50" height="31" as="geometry" />
        </mxCell>
        <mxCell id="N3dtoauHQk78ToCYjNHM-14" value="w0=[w00, w01]" style="text;html=1;align=center;verticalAlign=middle;resizable=0;points=[];autosize=1;strokeColor=none;fillColor=none;" vertex="1" parent="1">
          <mxGeometry x="270" y="90" width="100" height="30" as="geometry" />
        </mxCell>
        <mxCell id="N3dtoauHQk78ToCYjNHM-15" value="&lt;div&gt;w1=[w10,&lt;/div&gt;&lt;div&gt;&amp;nbsp;&amp;nbsp;&amp;nbsp;&amp;nbsp;&amp;nbsp;&amp;nbsp; w11]&lt;/div&gt;" style="text;html=1;align=center;verticalAlign=middle;resizable=0;points=[];autosize=1;strokeColor=none;fillColor=none;" vertex="1" parent="1">
          <mxGeometry x="270" y="270" width="70" height="40" as="geometry" />
        </mxCell>
        <mxCell id="N3dtoauHQk78ToCYjNHM-16" value="fc0_out = in @ w00" style="text;html=1;align=center;verticalAlign=middle;resizable=0;points=[];autosize=1;strokeColor=none;fillColor=none;" vertex="1" parent="1">
          <mxGeometry x="160" y="180" width="130" height="30" as="geometry" />
        </mxCell>
        <mxCell id="N3dtoauHQk78ToCYjNHM-22" value="" style="group" vertex="1" connectable="0" parent="1">
          <mxGeometry x="210" y="250" width="60" height="60" as="geometry" />
        </mxCell>
        <mxCell id="N3dtoauHQk78ToCYjNHM-23" value="w10" style="rounded=0;whiteSpace=wrap;html=1;fillColor=#d5e8d4;strokeColor=#82b366;" vertex="1" parent="N3dtoauHQk78ToCYjNHM-22">
          <mxGeometry width="60" height="30" as="geometry" />
        </mxCell>
        <mxCell id="N3dtoauHQk78ToCYjNHM-24" value="w11" style="rounded=0;whiteSpace=wrap;html=1;dashed=1;" vertex="1" parent="N3dtoauHQk78ToCYjNHM-22">
          <mxGeometry y="30" width="60" height="30" as="geometry" />
        </mxCell>
        <mxCell id="N3dtoauHQk78ToCYjNHM-25" style="edgeStyle=none;rounded=0;orthogonalLoop=1;jettySize=auto;html=1;exitX=0.25;exitY=1;exitDx=0;exitDy=0;" edge="1" parent="N3dtoauHQk78ToCYjNHM-22" source="N3dtoauHQk78ToCYjNHM-23" target="N3dtoauHQk78ToCYjNHM-23">
          <mxGeometry relative="1" as="geometry" />
        </mxCell>
        <mxCell id="N3dtoauHQk78ToCYjNHM-26" style="edgeStyle=none;rounded=0;orthogonalLoop=1;jettySize=auto;html=1;entryX=0.5;entryY=0;entryDx=0;entryDy=0;" edge="1" parent="1" source="N3dtoauHQk78ToCYjNHM-27" target="N3dtoauHQk78ToCYjNHM-33">
          <mxGeometry relative="1" as="geometry" />
        </mxCell>
        <mxCell id="N3dtoauHQk78ToCYjNHM-58" value="fc0_out" style="edgeLabel;html=1;align=center;verticalAlign=middle;resizable=0;points=[];" vertex="1" connectable="0" parent="N3dtoauHQk78ToCYjNHM-26">
          <mxGeometry x="-0.4533" y="-1" relative="1" as="geometry">
            <mxPoint x="1" y="7" as="offset" />
          </mxGeometry>
        </mxCell>
        <mxCell id="N3dtoauHQk78ToCYjNHM-27" value="fc0" style="rounded=1;whiteSpace=wrap;html=1;" vertex="1" parent="1">
          <mxGeometry x="600" y="160" width="50" height="30" as="geometry" />
        </mxCell>
        <mxCell id="N3dtoauHQk78ToCYjNHM-28" style="edgeStyle=orthogonalEdgeStyle;rounded=0;orthogonalLoop=1;jettySize=auto;html=1;entryX=0.5;entryY=0;entryDx=0;entryDy=0;" edge="1" parent="1" source="N3dtoauHQk78ToCYjNHM-30" target="N3dtoauHQk78ToCYjNHM-27">
          <mxGeometry relative="1" as="geometry" />
        </mxCell>
        <mxCell id="N3dtoauHQk78ToCYjNHM-29" value="input" style="edgeLabel;html=1;align=center;verticalAlign=middle;resizable=0;points=[];" vertex="1" connectable="0" parent="N3dtoauHQk78ToCYjNHM-28">
          <mxGeometry x="-0.048" relative="1" as="geometry">
            <mxPoint as="offset" />
          </mxGeometry>
        </mxCell>
        <mxCell id="N3dtoauHQk78ToCYjNHM-30" value="……" style="rounded=1;whiteSpace=wrap;html=1;" vertex="1" parent="1">
          <mxGeometry x="600" y="80" width="50" height="30" as="geometry" />
        </mxCell>
        <mxCell id="N3dtoauHQk78ToCYjNHM-31" style="edgeStyle=none;rounded=0;orthogonalLoop=1;jettySize=auto;html=1;entryX=1;entryY=0.5;entryDx=0;entryDy=0;exitX=0;exitY=0.75;exitDx=0;exitDy=0;" edge="1" parent="1" source="N3dtoauHQk78ToCYjNHM-44" target="N3dtoauHQk78ToCYjNHM-27">
          <mxGeometry relative="1" as="geometry">
            <mxPoint x="721.25" y="130" as="sourcePoint" />
          </mxGeometry>
        </mxCell>
        <mxCell id="N3dtoauHQk78ToCYjNHM-32" style="edgeStyle=none;rounded=0;orthogonalLoop=1;jettySize=auto;html=1;entryX=0.5;entryY=0;entryDx=0;entryDy=0;" edge="1" parent="1" source="N3dtoauHQk78ToCYjNHM-33" target="N3dtoauHQk78ToCYjNHM-36">
          <mxGeometry relative="1" as="geometry" />
        </mxCell>
        <mxCell id="N3dtoauHQk78ToCYjNHM-33" value="act" style="rounded=1;whiteSpace=wrap;html=1;" vertex="1" parent="1">
          <mxGeometry x="600" y="220" width="50" height="30" as="geometry" />
        </mxCell>
        <mxCell id="N3dtoauHQk78ToCYjNHM-34" style="edgeStyle=none;rounded=0;orthogonalLoop=1;jettySize=auto;html=1;entryX=0.5;entryY=0;entryDx=0;entryDy=0;" edge="1" parent="1" source="N3dtoauHQk78ToCYjNHM-36">
          <mxGeometry relative="1" as="geometry">
            <mxPoint x="625" y="410" as="targetPoint" />
          </mxGeometry>
        </mxCell>
        <mxCell id="N3dtoauHQk78ToCYjNHM-35" value="fc1_out" style="edgeLabel;html=1;align=center;verticalAlign=middle;resizable=0;points=[];" vertex="1" connectable="0" parent="N3dtoauHQk78ToCYjNHM-34">
          <mxGeometry x="-0.09" y="1" relative="1" as="geometry">
            <mxPoint as="offset" />
          </mxGeometry>
        </mxCell>
        <mxCell id="N3dtoauHQk78ToCYjNHM-36" value="fc1" style="rounded=1;whiteSpace=wrap;html=1;" vertex="1" parent="1">
          <mxGeometry x="600" y="320" width="50" height="30" as="geometry" />
        </mxCell>
        <mxCell id="N3dtoauHQk78ToCYjNHM-37" style="edgeStyle=none;rounded=0;orthogonalLoop=1;jettySize=auto;html=1;entryX=1;entryY=0.5;entryDx=0;entryDy=0;exitX=0;exitY=0;exitDx=0;exitDy=0;" edge="1" parent="1" source="N3dtoauHQk78ToCYjNHM-49" target="N3dtoauHQk78ToCYjNHM-36">
          <mxGeometry relative="1" as="geometry">
            <mxPoint x="720" y="265.52631578947376" as="sourcePoint" />
          </mxGeometry>
        </mxCell>
        <mxCell id="N3dtoauHQk78ToCYjNHM-39" value="w0=[w00, w01]" style="text;html=1;align=center;verticalAlign=middle;resizable=0;points=[];autosize=1;strokeColor=none;fillColor=none;" vertex="1" parent="1">
          <mxGeometry x="770" y="90" width="100" height="30" as="geometry" />
        </mxCell>
        <mxCell id="N3dtoauHQk78ToCYjNHM-40" value="&lt;div&gt;w1=[w10,&lt;/div&gt;&lt;div&gt;&amp;nbsp;&amp;nbsp;&amp;nbsp;&amp;nbsp;&amp;nbsp;&amp;nbsp; w11]&lt;/div&gt;" style="text;html=1;align=center;verticalAlign=middle;resizable=0;points=[];autosize=1;strokeColor=none;fillColor=none;" vertex="1" parent="1">
          <mxGeometry x="770" y="270" width="70" height="40" as="geometry" />
        </mxCell>
        <mxCell id="N3dtoauHQk78ToCYjNHM-41" value="fc0_out = in @ w01" style="text;html=1;align=center;verticalAlign=middle;resizable=0;points=[];autosize=1;strokeColor=none;fillColor=none;" vertex="1" parent="1">
          <mxGeometry x="675" y="190" width="130" height="30" as="geometry" />
        </mxCell>
        <mxCell id="N3dtoauHQk78ToCYjNHM-47" value="" style="group" vertex="1" connectable="0" parent="1">
          <mxGeometry x="710" y="250" width="60" height="60" as="geometry" />
        </mxCell>
        <mxCell id="N3dtoauHQk78ToCYjNHM-48" value="w10" style="rounded=0;whiteSpace=wrap;html=1;dashed=1;" vertex="1" parent="N3dtoauHQk78ToCYjNHM-47">
          <mxGeometry width="60" height="30" as="geometry" />
        </mxCell>
        <mxCell id="N3dtoauHQk78ToCYjNHM-49" value="w11" style="rounded=0;whiteSpace=wrap;html=1;fillColor=#fff2cc;strokeColor=#d6b656;" vertex="1" parent="N3dtoauHQk78ToCYjNHM-47">
          <mxGeometry y="30" width="60" height="30" as="geometry" />
        </mxCell>
        <mxCell id="N3dtoauHQk78ToCYjNHM-50" style="edgeStyle=none;rounded=0;orthogonalLoop=1;jettySize=auto;html=1;exitX=0.25;exitY=1;exitDx=0;exitDy=0;" edge="1" parent="N3dtoauHQk78ToCYjNHM-47" source="N3dtoauHQk78ToCYjNHM-48" target="N3dtoauHQk78ToCYjNHM-48">
          <mxGeometry relative="1" as="geometry" />
        </mxCell>
        <mxCell id="N3dtoauHQk78ToCYjNHM-19" value="w00" style="rounded=0;whiteSpace=wrap;html=1;fillColor=#dae8fc;strokeColor=#6c8ebf;" vertex="1" parent="1">
          <mxGeometry x="210" y="70" width="30" height="60" as="geometry" />
        </mxCell>
        <mxCell id="N3dtoauHQk78ToCYjNHM-20" style="edgeStyle=none;rounded=0;orthogonalLoop=1;jettySize=auto;html=1;exitX=0;exitY=0.5;exitDx=0;exitDy=0;" edge="1" parent="1" source="N3dtoauHQk78ToCYjNHM-21" target="N3dtoauHQk78ToCYjNHM-19">
          <mxGeometry relative="1" as="geometry" />
        </mxCell>
        <mxCell id="N3dtoauHQk78ToCYjNHM-21" value="w01" style="rounded=0;whiteSpace=wrap;html=1;dashed=1;" vertex="1" parent="1">
          <mxGeometry x="240" y="70" width="30" height="60" as="geometry" />
        </mxCell>
        <mxCell id="N3dtoauHQk78ToCYjNHM-44" value="w00" style="rounded=0;whiteSpace=wrap;html=1;dashed=1;" vertex="1" parent="1">
          <mxGeometry x="710" y="70" width="30" height="60" as="geometry" />
        </mxCell>
        <mxCell id="N3dtoauHQk78ToCYjNHM-45" style="edgeStyle=none;rounded=0;orthogonalLoop=1;jettySize=auto;html=1;exitX=0;exitY=0.5;exitDx=0;exitDy=0;" edge="1" parent="1" source="N3dtoauHQk78ToCYjNHM-46" target="N3dtoauHQk78ToCYjNHM-44">
          <mxGeometry relative="1" as="geometry" />
        </mxCell>
        <mxCell id="N3dtoauHQk78ToCYjNHM-46" value="w01" style="rounded=0;whiteSpace=wrap;html=1;fillColor=#ffe6cc;strokeColor=#d79b00;" vertex="1" parent="1">
          <mxGeometry x="740" y="70" width="30" height="60" as="geometry" />
        </mxCell>
        <mxCell id="N3dtoauHQk78ToCYjNHM-51" value="……" style="rounded=1;whiteSpace=wrap;html=1;" vertex="1" parent="1">
          <mxGeometry x="100" y="501" width="50" height="30" as="geometry" />
        </mxCell>
        <mxCell id="N3dtoauHQk78ToCYjNHM-55" value="fc1_out = act(in @ w00)@w10" style="text;html=1;align=center;verticalAlign=middle;resizable=0;points=[];autosize=1;strokeColor=none;fillColor=none;" vertex="1" parent="1">
          <mxGeometry x="160" y="360" width="180" height="30" as="geometry" />
        </mxCell>
        <mxCell id="N3dtoauHQk78ToCYjNHM-59" value="fc1_out = act(in @ w01)@w11" style="text;html=1;align=center;verticalAlign=middle;resizable=0;points=[];autosize=1;strokeColor=none;fillColor=none;" vertex="1" parent="1">
          <mxGeometry x="660" y="360" width="180" height="30" as="geometry" />
        </mxCell>
        <mxCell id="N3dtoauHQk78ToCYjNHM-60" style="edgeStyle=orthogonalEdgeStyle;rounded=0;orthogonalLoop=1;jettySize=auto;html=1;entryX=0.5;entryY=0;entryDx=0;entryDy=0;" edge="1" parent="1" source="N3dtoauHQk78ToCYjNHM-62" target="N3dtoauHQk78ToCYjNHM-63">
          <mxGeometry relative="1" as="geometry" />
        </mxCell>
        <mxCell id="N3dtoauHQk78ToCYjNHM-61" value="nccl_allreduce_out" style="edgeLabel;html=1;align=center;verticalAlign=middle;resizable=0;points=[];" vertex="1" connectable="0" parent="N3dtoauHQk78ToCYjNHM-60">
          <mxGeometry x="-0.11" relative="1" as="geometry">
            <mxPoint as="offset" />
          </mxGeometry>
        </mxCell>
        <mxCell id="N3dtoauHQk78ToCYjNHM-62" value="&lt;div&gt;nccl&lt;/div&gt;&lt;div&gt;allreduce&lt;br&gt;&lt;/div&gt;" style="rounded=1;whiteSpace=wrap;html=1;" vertex="1" parent="1">
          <mxGeometry x="600" y="410" width="50" height="31" as="geometry" />
        </mxCell>
        <mxCell id="N3dtoauHQk78ToCYjNHM-63" value="……" style="rounded=1;whiteSpace=wrap;html=1;" vertex="1" parent="1">
          <mxGeometry x="600" y="501" width="50" height="30" as="geometry" />
        </mxCell>
        <mxCell id="N3dtoauHQk78ToCYjNHM-64" value="nccl_allreduce_out=act(in @ w00)@w10&lt;span style=&quot;color: rgb(255, 76, 21);&quot;&gt; + &lt;/span&gt;act(in @ w01)@w11" style="text;html=1;align=center;verticalAlign=middle;resizable=0;points=[];autosize=1;strokeColor=none;fillColor=none;" vertex="1" parent="1">
          <mxGeometry x="145" y="471" width="360" height="30" as="geometry" />
        </mxCell>
        <mxCell id="N3dtoauHQk78ToCYjNHM-65" value="nccl_allreduce_out=act(in @ w00)@w10&lt;span style=&quot;color: rgb(255, 76, 21);&quot;&gt; + &lt;/span&gt;act(in @ w01)@w11" style="text;html=1;align=center;verticalAlign=middle;resizable=0;points=[];autosize=1;strokeColor=none;fillColor=none;" vertex="1" parent="1">
          <mxGeometry x="650" y="471" width="360" height="30" as="geometry" />
        </mxCell>
      </root>
    </mxGraphModel>
  </diagram>
</mxfile>
